<svg width="15" height="15" viewBox="0 0 15 15" fill="none" xmlns="http://www.w3.org/2000/svg">
<path d="M10.5387 2.80435L11.5931 1.74935C11.8129 1.52955 12.111 1.40607 12.4219 1.40607C12.7327 1.40607 13.0308 1.52955 13.2506 1.74935C13.4704 1.96914 13.5939 2.26725 13.5939 2.5781C13.5939 2.88894 13.4704 3.18705 13.2506 3.40685L6.61375 10.0437C6.28333 10.3739 5.87585 10.6167 5.42813 10.75L3.75 11.25L4.25 9.57185C4.3833 9.12412 4.62602 8.71664 4.95625 8.38622L10.5387 2.80435ZM10.5387 2.80435L12.1875 4.4531M11.25 8.74997V11.7187C11.25 12.0917 11.1018 12.4494 10.8381 12.7131C10.5744 12.9768 10.2167 13.125 9.84375 13.125H3.28125C2.90829 13.125 2.5506 12.9768 2.28688 12.7131C2.02316 12.4494 1.875 12.0917 1.875 11.7187V5.15622C1.875 4.78326 2.02316 4.42558 2.28688 4.16185C2.5506 3.89813 2.90829 3.74997 3.28125 3.74997H6.25" stroke="white" stroke-width="1.5" stroke-linecap="round" stroke-linejoin="round"/>
</svg>
