<svg width="28" height="28" viewBox="0 0 28 28" fill="none" xmlns="http://www.w3.org/2000/svg">
<path d="M17.399 4.3517C16.9946 5.40948 17.5235 5.7517 19.4835 5.7517H21.3812L16.4968 10.6673C13.8212 13.3739 11.6124 15.7384 11.6124 15.925C11.6124 16.5473 12.5457 17.2317 13.1057 17.045C13.3857 16.9517 15.7812 14.7428 18.3946 12.1606L23.1235 7.46281V9.3917C23.1235 11.3517 23.4657 11.8806 24.5235 11.4761C24.8968 11.3206 24.9901 10.5739 24.9901 7.58726V3.88503H21.2879C18.3012 3.88503 17.5546 3.97837 17.399 4.3517Z" fill="#AC10EA"/>
<path d="M3.89647 7.99167C3.36758 8.52056 3.36758 24.4494 3.89647 24.9783C4.42536 25.5072 20.3542 25.5072 20.8831 24.9783C21.1631 24.6983 21.2565 22.7383 21.2565 18.0717V11.5383L20.3231 12.4406L19.3898 13.3428V18.4139V23.485H12.3898H5.3898V16.485V9.485H10.4609H15.532L16.4342 8.55167L17.3365 7.61833H10.8031C6.13647 7.61833 4.17647 7.71167 3.89647 7.99167Z" fill="#AC10EA"/>
</svg>
