<svg width="28" height="28" viewBox="0 0 28 28" fill="none" xmlns="http://www.w3.org/2000/svg">
<path d="M5.84621 3.59722C3.38843 4.87278 2.48621 6.64611 2.64176 9.72611C2.82843 13.4906 5.19287 17.1617 10.1707 21.455C13.5618 24.3483 13.9973 24.3483 17.3884 21.455C20.344 18.9039 22.7084 16.1039 23.9218 13.6772C25.1351 11.3439 25.3218 8.10833 24.4195 6.30389C23.2684 4.06389 21.5262 3.06833 18.8195 3.06833C17.2018 3.06833 16.7351 3.22389 15.3662 4.12611L13.7795 5.215L12.1929 4.12611C10.7929 3.19278 10.3573 3.06833 8.67732 3.06833C7.55732 3.09945 6.40621 3.28611 5.84621 3.59722Z" fill="#AC10EA"/>
</svg>
