<svg width="28" height="28" viewBox="0 0 28 28" fill="none" xmlns="http://www.w3.org/2000/svg">
<g opacity="0.2">
<path d="M13.2556 2.17771C13.1918 2.30098 12.5211 4.18088 11.7866 6.33813L10.4133 10.2828L8.94426 10.3137C8.11392 10.3445 6.00614 10.4369 4.24966 10.5602C-0.0936444 10.8067 -0.0936444 11.0841 4.31353 14.2892C6.19776 15.676 7.8265 16.9087 7.85844 17.0936C7.92231 17.2477 7.44327 19.0968 6.77261 21.1924C5.62291 24.9214 5.5271 26 6.42131 26C6.6768 26 8.40135 24.9522 10.2536 23.6887C12.1379 22.4251 13.7985 21.3773 13.9902 21.3773C14.1818 21.3773 15.8744 22.4251 17.7267 23.6887C22.6129 27.0478 23.0281 26.7396 21.1758 21.0999C20.569 19.1892 20.058 17.4634 20.058 17.2785C20.058 17.0628 21.6548 15.7376 23.6029 14.3508C28.1378 11.0533 28.1378 10.8067 23.571 10.5602C21.7187 10.4369 19.6109 10.3445 18.8764 10.3137L17.567 10.2828L16.1618 6.18405C14.9802 2.82489 14.6289 2.08525 14.086 2.02362C13.7027 1.96198 13.3514 2.02362 13.2556 2.17771Z" fill="#2F304E"/>
</g>
</svg>
