<svg width="30" height="28" viewBox="0 0 30 28" fill="none" xmlns="http://www.w3.org/2000/svg">
<path d="M17.8125 18.725V20.9125C17.8125 21.4927 17.5656 22.0491 17.126 22.4593C16.6865 22.8695 16.0904 23.1 15.4688 23.1H6.09375C5.47215 23.1 4.87601 22.8695 4.43647 22.4593C3.99693 22.0491 3.75 21.4927 3.75 20.9125V7.78751C3.75 7.20735 3.99693 6.65095 4.43647 6.24071C4.87601 5.83047 5.47215 5.60001 6.09375 5.60001H15C16.2943 5.60001 17.8125 6.57946 17.8125 7.78751V9.97501M21.5625 18.725L26.25 14.35L21.5625 9.97501M10.3125 14.35H25.3125" stroke="black" stroke-width="2" stroke-linecap="round" stroke-linejoin="round"/>
</svg>
