<svg width="30" height="30" viewBox="0 0 30 30" fill="none" xmlns="http://www.w3.org/2000/svg">
<path d="M24.2812 8.25H5.71875C4.32078 8.25 3.1875 9.38328 3.1875 10.7812V22.5938C3.1875 23.9917 4.32078 25.125 5.71875 25.125H24.2812C25.6792 25.125 26.8125 23.9917 26.8125 22.5938V10.7812C26.8125 9.38328 25.6792 8.25 24.2812 8.25Z" stroke="black" stroke-linejoin="round"/>
<path d="M9.09375 8.25V6.5625C9.09375 6.11495 9.27154 5.68572 9.58801 5.36926C9.90448 5.05279 10.3337 4.875 10.7812 4.875H19.2188C19.6663 4.875 20.0955 5.05279 20.412 5.36926C20.7285 5.68572 20.9062 6.11495 20.9062 6.5625V8.25M26.8125 14.1562H3.1875M18.375 14.1562V15.4219C18.375 15.5338 18.3306 15.6411 18.2514 15.7202C18.1723 15.7993 18.065 15.8438 17.9531 15.8438H12.0469C11.935 15.8438 11.8277 15.7993 11.7486 15.7202C11.6694 15.6411 11.625 15.5338 11.625 15.4219V14.1562" stroke="black" stroke-linecap="round" stroke-linejoin="round"/>
</svg>
