<svg width="36" height="36" viewBox="0 0 36 36" fill="none" xmlns="http://www.w3.org/2000/svg">
<path d="M21.6257 11.8407L23.0405 10.4519C23.3355 10.1626 23.7355 10 24.1526 10C24.5697 10 24.9698 10.1626 25.2647 10.4519C25.5596 10.7412 25.7253 11.1337 25.7253 11.5429C25.7253 11.9521 25.5596 12.3445 25.2647 12.6339L16.3589 21.3707C15.9155 21.8055 15.3687 22.125 14.7679 22.3005L12.5161 22.9587L13.187 20.7496C13.3659 20.1602 13.6916 19.6238 14.1347 19.1888L21.6257 11.8407ZM21.6257 11.8407L23.8381 14.0112M22.5801 19.6676V23.5757C22.5801 24.0667 22.3813 24.5376 22.0274 24.8847C21.6735 25.2319 21.1936 25.427 20.6931 25.427H11.8871C11.3866 25.427 10.9067 25.2319 10.5528 24.8847C10.1989 24.5376 10.0001 24.0667 10.0001 23.5757V14.9368C10.0001 14.4458 10.1989 13.9749 10.5528 13.6278C10.9067 13.2806 11.3866 13.0856 11.8871 13.0856H15.8708" stroke="#AC10EA" stroke-width="1.5" stroke-linecap="round" stroke-linejoin="round"/>
</svg>
