<svg width="30" height="30" viewBox="0 0 30 30" fill="none" xmlns="http://www.w3.org/2000/svg">
<path d="M15.9 5.09998C9.9356 5.09998 5.10001 9.93557 5.10001 15.9C5.10001 21.8644 9.9356 26.7 15.9 26.7C21.8644 26.7 26.7 21.8644 26.7 15.9C26.7 9.93557 21.8644 5.09998 15.9 5.09998Z" stroke="black" stroke-miterlimit="10"/>
<path d="M15.9 5.09998C13.1168 5.09998 10.5 9.93557 10.5 15.9C10.5 21.8644 13.1168 26.7 15.9 26.7C18.6832 26.7 21.3 21.8644 21.3 15.9C21.3 9.93557 18.6832 5.09998 15.9 5.09998Z" stroke="black" stroke-miterlimit="10"/>
<path d="M8.70001 8.70001C10.6855 10.1097 13.185 10.9503 15.9 10.9503C18.615 10.9503 21.1145 10.1097 23.1 8.70001M23.1 23.1C21.1145 21.6903 18.615 20.8497 15.9 20.8497C13.185 20.8497 10.6855 21.6903 8.70001 23.1" stroke="black" stroke-linecap="round" stroke-linejoin="round"/>
<path d="M15.9 5.09998V26.7M26.7 15.9H5.10001" stroke="black" stroke-miterlimit="10"/>
</svg>
