<svg width="30" height="30" viewBox="0 0 30 30" fill="none" xmlns="http://www.w3.org/2000/svg">
<path d="M14.5781 4.875C9.21979 4.875 4.875 9.21979 4.875 14.5781C4.875 19.9365 9.21979 24.2812 14.5781 24.2812C19.9365 24.2812 24.2812 19.9365 24.2812 14.5781C24.2812 9.21979 19.9365 4.875 14.5781 4.875Z" stroke="black" stroke-miterlimit="10"/>
<path d="M13.1016 13.1016H14.7891V19.2188" stroke="black" stroke-linecap="round" stroke-linejoin="round"/>
<path d="M12.4688 19.4297H17.1094" stroke="black" stroke-miterlimit="10" stroke-linecap="round"/>
<path d="M14.5781 8.35547C14.3069 8.35547 14.0419 8.43588 13.8164 8.58654C13.5909 8.7372 13.4152 8.95133 13.3114 9.20187C13.2076 9.4524 13.1805 9.72808 13.2334 9.99405C13.2863 10.26 13.4169 10.5043 13.6086 10.6961C13.8004 10.8878 14.0447 11.0184 14.3106 11.0713C14.5766 11.1242 14.8523 11.0971 15.1028 10.9933C15.3534 10.8895 15.5675 10.7138 15.7181 10.4883C15.8688 10.2628 15.9492 9.99774 15.9492 9.72656C15.9492 9.36293 15.8048 9.01418 15.5476 8.75705C15.2905 8.49992 14.9418 8.35547 14.5781 8.35547Z" fill="black"/>
</svg>
