<svg width="843" height="40" viewBox="0 0 843 40" fill="none" xmlns="http://www.w3.org/2000/svg">
<rect x="19.5822" y="5.90375" width="803.54" height="26.4418" rx="13.2209" fill="url(#paint0_linear_1_105)" stroke="black" stroke-width="2"/>
<path d="M18.582 1C28.2422 1 36.1641 9.28278 36.1641 19.6152C36.164 29.9476 28.2421 38.2305 18.582 38.2305C8.92207 38.2304 1.00011 29.9475 1 19.6152C1 9.28286 8.922 1.00012 18.582 1Z" fill="#EAEAEA" stroke="black" stroke-width="2"/>
<path d="M824.122 1C833.782 1 841.704 9.28278 841.704 19.6152C841.704 29.9476 833.782 38.2305 824.122 38.2305C814.462 38.2304 806.54 29.9475 806.54 19.6152C806.54 9.28286 814.462 1.00012 824.122 1Z" fill="#EAEAEA" stroke="black" stroke-width="2"/>
<path d="M18.0031 28.0957C16.8191 28.0957 15.6671 27.9117 14.5471 27.5437C13.4431 27.1757 12.5391 26.6797 11.8351 26.0557L12.9391 24.1597C13.4991 24.6877 14.2271 25.1197 15.1231 25.4557C16.0191 25.7917 16.9791 25.9597 18.0031 25.9597C19.2511 25.9597 20.2191 25.6957 20.9071 25.1677C21.6111 24.6237 21.9631 23.8957 21.9631 22.9837C21.9631 22.1037 21.6271 21.3997 20.9551 20.8717C20.2991 20.3277 19.2511 20.0557 17.8111 20.0557H16.4671V18.3757L21.4591 12.2317L21.7951 13.1917H12.6031V11.1037H23.6911V12.7357L18.7231 18.8557L17.4751 18.1117H18.2671C20.2991 18.1117 21.8191 18.5677 22.8271 19.4797C23.8511 20.3917 24.3631 21.5517 24.3631 22.9597C24.3631 23.9037 24.1311 24.7677 23.6671 25.5517C23.2031 26.3357 22.4991 26.9597 21.5551 27.4237C20.6271 27.8717 19.4431 28.0957 18.0031 28.0957Z" fill="black"/>
<path d="M817.472 23.7757V22.0957L826.064 11.1037H828.656L820.136 22.0957L818.912 21.7117H832.328V23.7757H817.472ZM826.808 27.9037V23.7757L826.88 21.7117V18.0637H829.136V27.9037H826.808Z" fill="black"/>
<defs>
<linearGradient id="paint0_linear_1_105" x1="18.5822" y1="19.1246" x2="824.122" y2="19.1246" gradientUnits="userSpaceOnUse">
<stop offset="0.349999" stop-color="#AC10EA"/>
<stop offset="0.504999" stop-color="#D9D9D9"/>
<stop offset="0.714999" stop-color="#352D39"/>
</linearGradient>
</defs>
</svg>
