<svg width="30" height="28" viewBox="0 0 30 28" fill="none" xmlns="http://www.w3.org/2000/svg">
<path d="M19.0206 19.7346V20.4077C19.0206 21.1217 18.6761 21.8065 18.0628 22.3114C17.4496 22.8164 16.6179 23.1 15.7506 23.1C14.8834 23.1 14.0516 22.8164 13.4384 22.3114C12.8252 21.8065 12.4807 21.1217 12.4807 20.4077V19.7346M24.5223 18.3645C23.2102 17.0423 22.2839 16.3692 22.2839 12.7241C22.2839 9.38606 20.2136 8.19682 18.5096 7.61924C18.2833 7.54267 18.0702 7.36683 18.0013 7.17543C17.7024 6.33787 16.8644 5.60001 15.7506 5.60001C14.6368 5.60001 13.7983 6.33829 13.5025 7.17627C13.4335 7.36978 13.2205 7.54267 12.9941 7.61924C11.2881 8.19766 9.2199 9.3827 9.2199 12.7241C9.21734 16.3692 8.29103 17.0423 6.97896 18.3645C6.43533 18.9122 6.91151 19.7346 7.86236 19.7346H23.644C24.5897 19.7346 25.0628 18.9097 24.5223 18.3645Z" stroke="black" stroke-width="2" stroke-linecap="round" stroke-linejoin="round"/>
</svg>
